<svg xmlns="http://www.w3.org/2000/svg" viewBox="0 0 200 200">
  <!-- Healer Avatar -->
  <defs>
    <linearGradient id="healerRobe" x1="0%" y1="0%" x2="0%" y2="100%">
      <stop offset="0%" style="stop-color:#a8e6cf;stop-opacity:1" />
      <stop offset="100%" style="stop-color:#56ab91;stop-opacity:1" />
    </linearGradient>
    <radialGradient id="healingGlow" cx="50%" cy="50%" r="50%">
      <stop offset="0%" style="stop-color:#7dcea0;stop-opacity:0.8" />
      <stop offset="100%" style="stop-color:#27ae60;stop-opacity:0" />
    </radialGradient>
  </defs>
  
  <!-- Healing Aura -->
  <circle cx="100" cy="100" r="70" fill="url(#healingGlow)">
    <animate attributeName="r" values="65;75;65" dur="3s" repeatCount="indefinite"/>
    <animate attributeName="opacity" values="0.3;0.6;0.3" dur="3s" repeatCount="indefinite"/>
  </circle>
  
  <!-- Glowing Halo -->
  <circle cx="100" cy="55" r="25" fill="none" stroke="#27ae60" stroke-width="3" opacity="0.8">
    <animate attributeName="opacity" values="0.8;0.4;0.8" dur="2.5s" repeatCount="indefinite"/>
    <animate attributeName="r" values="24;26;24" dur="2.5s" repeatCount="indefinite"/>
  </circle>
  
  <!-- Face -->
  <circle cx="100" cy="85" r="28" fill="#f0c674"/>
  
  <!-- Hair (gentle waves) -->
  <path d="M 75 75 Q 75 65 85 65 Q 100 60 115 65 Q 125 65 125 75 L 125 85 Q 120 80 115 85 L 115 95 Q 110 90 105 95 L 100 90 L 95 95 Q 90 90 85 95 L 85 85 Q 80 80 75 85 Z" fill="#8B6F47"/>
  
  <!-- Eyes (kind and compassionate) -->
  <circle cx="90" cy="83" r="3" fill="#000"/>
  <circle cx="110" cy="83" r="3" fill="#000"/>
  <circle cx="91" cy="82" r="1" fill="#fff"/>
  <circle cx="111" cy="82" r="1" fill="#fff"/>
  <path d="M 87 79 Q 90 77 93 79" stroke="#000" stroke-width="1" fill="none"/>
  <path d="M 107 79 Q 110 77 113 79" stroke="#000" stroke-width="1" fill="none"/>
  
  <!-- Gentle Smile -->
  <path d="M 88 95 Q 100 100 112 95" stroke="#000" stroke-width="2" fill="none"/>
  
  <!-- Healer Robe -->
  <path d="M 75 110 L 65 180 L 135 180 L 125 110" fill="url(#healerRobe)"/>
  <ellipse cx="100" cy="110" rx="27" ry="10" fill="#a8e6cf"/>
  
  <!-- Medical Cross (green) -->
  <rect x="95" y="115" width="10" height="20" fill="#27ae60" rx="2"/>
  <rect x="90" y="120" width="20" height="10" fill="#27ae60" rx="2"/>
  
  <!-- Sleeves -->
  <rect x="65" y="125" width="15" height="30" fill="#a8e6cf" rx="3"/>
  <rect x="120" y="125" width="15" height="30" fill="#a8e6cf" rx="3"/>
  
  <!-- Healing Staff -->
  <line x1="145" y1="120" x2="145" y2="175" stroke="#8B6F47" stroke-width="4"/>
  <circle cx="145" cy="115" r="8" fill="#27ae60" opacity="0.8">
    <animate attributeName="opacity" values="0.8;0.4;0.8" dur="2s" repeatCount="indefinite"/>
  </circle>
  
  <!-- Healing Orb on staff -->
  <circle cx="145" cy="115" r="6" fill="#7dcea0">
    <animate attributeName="r" values="5;7;5" dur="2s" repeatCount="indefinite"/>
  </circle>
  
  <!-- Healing Book -->
  <rect x="50" y="145" width="20" height="25" fill="#27ae60" rx="2"/>
  <line x1="60" y1="145" x2="60" y2="170" stroke="#fff" stroke-width="2"/>
  <circle cx="60" cy="157" r="3" fill="#fff"/>
  
  <!-- Healing Sparkles -->
  <circle cx="130" cy="95" r="2" fill="#27ae60" opacity="0.9">
    <animate attributeName="opacity" values="0.9;0.2;0.9" dur="1.5s" repeatCount="indefinite"/>
    <animate attributeName="cy" values="95;85;95" dur="1.5s" repeatCount="indefinite"/>
  </circle>
  <circle cx="140" cy="105" r="2" fill="#7dcea0" opacity="0.7">
    <animate attributeName="opacity" values="0.7;0.2;0.7" dur="2s" begin="0.5s" repeatCount="indefinite"/>
    <animate attributeName="cy" values="105;95;105" dur="2s" begin="0.5s" repeatCount="indefinite"/>
  </circle>
  <circle cx="70" cy="100" r="2" fill="#a8e6cf" opacity="0.8">
    <animate attributeName="opacity" values="0.8;0.2;0.8" dur="1.8s" begin="0.3s" repeatCount="indefinite"/>
    <animate attributeName="cy" values="100;90;100" dur="1.8s" begin="0.3s" repeatCount="indefinite"/>
  </circle>
  
  <!-- Heart symbol (floating) -->
  <path d="M 125 140 Q 125 135 130 135 Q 135 135 135 140 Q 135 145 125 150 Q 115 145 115 140 Q 115 135 120 135 Q 125 135 125 140" fill="#e74c3c" opacity="0.6">
    <animate attributeName="opacity" values="0.6;0.3;0.6" dur="2.5s" repeatCount="indefinite"/>
    <animateTransform attributeName="transform" type="translate" values="0,0; 0,-5; 0,0" dur="2.5s" repeatCount="indefinite"/>
  </path>
</svg>
