<svg xmlns="http://www.w3.org/2000/svg" viewBox="0 0 200 200">
  <!-- Mage Avatar -->
  <defs>
    <linearGradient id="robeGrad" x1="0%" y1="0%" x2="0%" y2="100%">
      <stop offset="0%" style="stop-color:#8e44ad;stop-opacity:1" />
      <stop offset="100%" style="stop-color:#9b59b6;stop-opacity:1" />
    </linearGradient>
  </defs>
  
  <!-- Wizard hat -->
  <path d="M 100 30 L 70 75 L 130 75 Z" fill="#9b59b6"/>
  <ellipse cx="100" cy="75" rx="33" ry="8" fill="#8e44ad"/>
  
  <!-- Hat star -->
  <polygon points="100,50 102,56 108,56 103,60 105,66 100,62 95,66 97,60 92,56 98,56" fill="#f39c12"/>
  
  <!-- Face -->
  <circle cx="100" cy="95" r="25" fill="#f0c674"/>
  
  <!-- Beard -->
  <path d="M 80 105 Q 100 115 120 105" fill="#ecf0f1"/>
  <path d="M 85 110 Q 100 118 115 110" fill="#ecf0f1"/>
  
  <!-- Eyes -->
  <circle cx="90" cy="90" r="3" fill="#000"/>
  <circle cx="110" cy="90" r="3" fill="#000"/>
  
  <!-- Robe -->
  <path d="M 75 115 L 70 180 L 130 180 L 125 115" fill="url(#robeGrad)"/>
  <ellipse cx="100" cy="115" rx="25" ry="10" fill="#8e44ad"/>
  
  <!-- Staff -->
  <line x1="145" y1="90" x2="145" y2="175" stroke="#8B4513" stroke-width="5"/>
  <circle cx="145" cy="85" r="10" fill="#3498db">
    <animate attributeName="opacity" values="1;0.5;1" dur="2s" repeatCount="indefinite"/>
  </circle>
  <circle cx="145" cy="85" r="6" fill="#5dade2"/>
  
  <!-- Belt -->
  <rect x="85" y="145" width="30" height="6" fill="#f39c12"/>
</svg>
