<svg xmlns="http://www.w3.org/2000/svg" viewBox="0 0 200 200">
  <!-- Warrior Avatar -->
  <defs>
    <linearGradient id="plate" x1="0%" y1="0%" x2="0%" y2="100%">
      <stop offset="0%" style="stop-color:#7f8c8d;stop-opacity:1" />
      <stop offset="100%" style="stop-color:#95a5a6;stop-opacity:1" />
    </linearGradient>
  </defs>
  
  <!-- Helmet -->
  <ellipse cx="100" cy="80" rx="35" ry="40" fill="url(#plate)"/>
  <rect x="65" y="60" width="70" height="10" fill="#95a5a6" rx="2"/>
  
  <!-- Visor -->
  <rect x="75" y="75" width="50" height="10" fill="#000" rx="2"/>
  <line x1="80" y1="80" x2="120" y2="80" stroke="#c0392b" stroke-width="2"/>
  
  <!-- Plume -->
  <path d="M 95 50 Q 100 35 105 50" stroke="#c0392b" stroke-width="4" fill="none"/>
  
  <!-- Shoulders -->
  <ellipse cx="70" cy="115" rx="20" ry="15" fill="#95a5a6"/>
  <ellipse cx="130" cy="115" rx="20" ry="15" fill="#95a5a6"/>
  
  <!-- Chest plate -->
  <rect x="80" y="115" width="40" height="65" fill="url(#plate)" rx="5"/>
  
  <!-- Shield -->
  <path d="M 45 120 Q 45 100 60 100 Q 75 100 75 120 Q 75 150 60 165 Q 45 150 45 120 Z" 
        fill="#e74c3c" stroke="#000" stroke-width="2"/>
  <circle cx="60" cy="130" r="8" fill="#f39c12"/>
  
  <!-- Sword -->
  <rect x="135" y="130" width="6" height="45" fill="#bdc3c7"/>
  <polygon points="138,125 133,130 143,130" fill="#ecf0f1"/>
  <rect x="132" y="150" width="12" height="5" fill="#8B4513"/>
</svg>
